<?xml version="1.0" encoding="UTF-8" standalone="no"?><!-- Generator: Gravit.io --><svg xmlns="http://www.w3.org/2000/svg" xmlns:xlink="http://www.w3.org/1999/xlink" style="isolation:isolate" viewBox="469.44 3958 4073.9 1244" width="212pt" height="65pt"><g><path d=" M 684.423 4286.113 L 731.878 4048.841 L 798.992 4048.841 L 751.537 4286.113 L 684.423 4286.113 L 684.423 4286.113 Z  M 995.843 4048.841 L 1061.601 4048.841 L 1014.147 4286.113 L 958.896 4286.113 L 880.596 4155.953 L 854.497 4286.113 L 788.738 4286.113 L 836.193 4048.841 L 891.443 4048.841 L 970.082 4178.663 L 995.843 4048.841 L 995.843 4048.841 Z  M 1139.816 4290.859 L 1139.816 4290.859 Q 1110.327 4290.859 1083.888 4283.74 L 1083.888 4283.74 L 1083.888 4283.74 Q 1057.449 4276.622 1040.84 4265.437 L 1040.84 4265.437 L 1067.279 4215.271 L 1067.279 4215.271 Q 1085.243 4226.795 1105.581 4232.727 L 1105.581 4232.727 L 1105.581 4232.727 Q 1125.919 4238.659 1146.256 4238.659 L 1146.256 4238.659 L 1146.256 4238.659 Q 1165.577 4238.659 1176.254 4233.066 L 1176.254 4233.066 L 1176.254 4233.066 Q 1186.931 4227.473 1186.931 4217.643 L 1186.931 4217.643 L 1186.931 4217.643 Q 1186.931 4209.169 1177.271 4204.424 L 1177.271 4204.424 L 1177.271 4204.424 Q 1167.611 4199.678 1147.273 4194.255 L 1147.273 4194.255 L 1147.273 4194.255 Q 1124.224 4188.154 1108.971 4181.883 L 1108.971 4181.883 L 1108.971 4181.883 Q 1093.717 4175.612 1082.701 4162.732 L 1082.701 4162.732 L 1082.701 4162.732 Q 1071.685 4149.851 1071.685 4128.836 L 1071.685 4128.836 L 1071.685 4128.836 Q 1071.685 4103.414 1085.582 4084.263 L 1085.582 4084.263 L 1085.582 4084.263 Q 1099.48 4065.111 1125.241 4054.604 L 1125.241 4054.604 L 1125.241 4054.604 Q 1151.002 4044.096 1185.576 4044.096 L 1185.576 4044.096 L 1185.576 4044.096 Q 1210.998 4044.096 1233.03 4049.35 L 1233.03 4049.35 L 1233.03 4049.35 Q 1255.062 4054.604 1270.994 4064.433 L 1270.994 4064.433 L 1246.588 4114.261 L 1246.588 4114.261 Q 1232.691 4105.448 1215.913 4100.872 L 1215.913 4100.872 L 1215.913 4100.872 Q 1199.134 4096.296 1181.508 4096.296 L 1181.508 4096.296 L 1181.508 4096.296 Q 1161.509 4096.296 1150.154 4102.736 L 1150.154 4102.736 L 1150.154 4102.736 Q 1138.799 4109.176 1138.799 4119.345 L 1138.799 4119.345 L 1138.799 4119.345 Q 1138.799 4128.158 1148.629 4132.903 L 1148.629 4132.903 L 1148.629 4132.903 Q 1158.459 4137.649 1179.135 4143.072 L 1179.135 4143.072 L 1179.135 4143.072 Q 1202.185 4148.834 1217.268 4154.936 L 1217.268 4154.936 L 1217.268 4154.936 Q 1232.352 4161.037 1243.199 4173.579 L 1243.199 4173.579 L 1243.199 4173.579 Q 1254.046 4186.12 1254.046 4206.458 L 1254.046 4206.458 L 1254.046 4206.458 Q 1254.046 4231.541 1239.979 4250.692 L 1239.979 4250.692 L 1239.979 4250.692 Q 1225.912 4269.843 1199.981 4280.351 L 1199.981 4280.351 L 1199.981 4280.351 Q 1174.051 4290.859 1139.816 4290.859 L 1139.816 4290.859 L 1139.816 4290.859 Z  M 1407.849 4048.841 L 1407.849 4048.841 Q 1453.947 4048.841 1479.03 4068.84 L 1479.03 4068.84 L 1479.03 4068.84 Q 1504.113 4088.839 1504.113 4125.107 L 1504.113 4125.107 L 1504.113 4125.107 Q 1504.113 4154.936 1489.707 4177.307 L 1489.707 4177.307 L 1489.707 4177.307 Q 1475.302 4199.678 1448.693 4211.881 L 1448.693 4211.881 L 1448.693 4211.881 Q 1422.085 4224.084 1386.833 4224.084 L 1386.833 4224.084 L 1339.379 4224.084 L 1327.176 4286.113 L 1260.062 4286.113 L 1307.516 4048.841 L 1407.849 4048.841 L 1407.849 4048.841 Z  M 1389.884 4171.206 L 1389.884 4171.206 Q 1412.255 4171.206 1424.288 4160.698 L 1424.288 4160.698 L 1424.288 4160.698 Q 1436.321 4150.19 1436.321 4130.87 L 1436.321 4130.87 L 1436.321 4130.87 Q 1436.321 4116.294 1426.661 4109.007 L 1426.661 4109.007 L 1426.661 4109.007 Q 1417.001 4101.719 1399.036 4101.719 L 1399.036 4101.719 L 1363.784 4101.719 L 1349.886 4171.206 L 1389.884 4171.206 L 1389.884 4171.206 Z  M 1718.59 4100.702 L 1598.937 4100.702 L 1591.141 4140.699 L 1696.558 4140.699 L 1686.728 4190.865 L 1580.972 4190.865 L 1572.498 4234.252 L 1696.897 4234.252 L 1686.05 4286.113 L 1495.893 4286.113 L 1543.348 4048.841 L 1729.098 4048.841 L 1718.59 4100.702 L 1718.59 4100.702 Z  M 1957.472 4124.429 L 1957.472 4124.429 Q 1957.472 4156.969 1940.185 4180.527 L 1940.185 4180.527 L 1940.185 4180.527 Q 1922.898 4204.085 1891.714 4214.932 L 1891.714 4214.932 L 1932.05 4286.113 L 1861.885 4286.113 L 1826.634 4223.067 L 1792.738 4223.067 L 1780.196 4286.113 L 1713.082 4286.113 L 1760.536 4048.841 L 1861.885 4048.841 L 1861.885 4048.841 Q 1907.306 4048.841 1932.389 4068.84 L 1932.389 4068.84 L 1932.389 4068.84 Q 1957.472 4088.839 1957.472 4124.429 L 1957.472 4124.429 L 1957.472 4124.429 Z  M 1889.68 4130.87 L 1889.68 4130.87 Q 1889.68 4116.294 1879.85 4109.007 L 1879.85 4109.007 L 1879.85 4109.007 Q 1870.02 4101.719 1852.395 4101.719 L 1852.395 4101.719 L 1817.143 4101.719 L 1802.906 4171.206 L 1842.904 4171.206 L 1842.904 4171.206 Q 1865.275 4171.206 1877.478 4160.698 L 1877.478 4160.698 L 1877.478 4160.698 Q 1889.68 4150.19 1889.68 4130.87 L 1889.68 4130.87 L 1889.68 4130.87 Z " fill="rgb(255,69,13)"/><path d=" M 680.082 4329.138 L 865.945 4329.138 L 971.729 4670.216 L 1199.115 4329.138 L 1385.966 4329.138 L 1260.41 5040.954 L 1081.467 5040.954 L 1152.649 4639.568 L 1000.399 4878.818 L 870.888 4878.818 L 803.661 4639.568 L 732.48 5040.954 L 554.526 5040.954 L 680.082 4329.138 L 680.082 4329.138 Z " fill="rgb(62,62,62)"/><path d=" M 1448.647 4331 L 1364 4732.767 L 1486.786 4732.767 L 1426.903 5039.41 L 1480.272 4929.687 L 1649.41 4581.854 L 1541.602 4581.854 L 1618.918 4331 L 1448.647 4331 Z  M 1407.645 4682.596" fill="rgb(255,69,13)"/><path d=" M 2102.29 4887.727 L 2074.609 5041.954 L 1623.792 5041.954 L 1749.348 4330.138 L 1927.302 4330.138 L 1829.428 4887.727 L 2102.29 4887.727 L 2102.29 4887.727 Z  M 2635.305 4887.727 L 2607.623 5041.954 L 2111.329 5041.954 L 2236.886 4330.138 L 2733.18 4330.138 L 2705.498 4484.364 L 2387.158 4484.364 L 2364.419 4617.83 L 2627.396 4617.83 L 2599.714 4772.057 L 2336.738 4772.057 L 2316.965 4887.727 L 2635.305 4887.727 L 2635.305 4887.727 Z  M 3218.74 5041.954 L 3030.899 5041.954 L 3036.831 4886.738 L 2871.729 4886.738 L 2823.286 5041.954 L 2634.458 5041.954 L 2888.536 4330.138 L 3214.785 4330.138 L 3218.74 5041.954 L 3218.74 5041.954 Z  M 3052.649 4503.148 L 2990.365 4503.148 L 2912.263 4754.261 L 3041.774 4754.261 L 3052.649 4503.148 L 3052.649 4503.148 Z  M 3518.437 5055.794 L 3518.437 5055.794 L 3518.437 5055.794 Q 3378.051 5055.794 3324.665 4990.545 L 3324.665 4990.545 L 3324.665 4990.545 Q 3288.085 4945.067 3288.085 4865.977 L 3288.085 4865.977 L 3288.085 4865.977 Q 3288.085 4829.397 3295.994 4785.898 L 3295.994 4785.898 L 3330.596 4588.171 L 3330.596 4588.171 Q 3377.062 4323.217 3654.868 4323.217 L 3654.868 4323.217 L 3654.868 4323.217 Q 3769.55 4323.217 3828.868 4372.155 L 3828.868 4372.155 L 3828.868 4372.155 Q 3888.186 4421.092 3888.186 4506.114 L 3888.186 4506.114 L 3888.186 4506.114 Q 3888.186 4540.717 3878.794 4576.307 L 3878.794 4576.307 L 3878.794 4576.307 Q 3869.402 4611.898 3860.504 4629.694 L 3860.504 4629.694 L 3850.618 4647.489 L 3675.629 4647.489 L 3675.629 4647.489 Q 3701.334 4611.898 3701.334 4565.432 L 3701.334 4565.432 L 3701.334 4565.432 Q 3701.334 4476.455 3627.186 4476.455 L 3627.186 4476.455 L 3627.186 4476.455 Q 3527.334 4476.455 3507.562 4592.125 L 3507.562 4592.125 L 3473.948 4781.943 L 3473.948 4781.943 Q 3469.005 4808.636 3469.005 4834.341 L 3469.005 4834.341 L 3469.005 4834.341 Q 3469.005 4902.556 3549.579 4902.556 L 3549.579 4902.556 L 3549.579 4902.556 Q 3630.152 4902.556 3652.891 4821.488 L 3652.891 4821.488 L 3571.823 4821.488 L 3591.596 4711.75 L 3853.583 4711.75 L 3837.765 4796.773 L 3832.822 4825.443 L 3832.822 4825.443 Q 3791.3 5055.794 3518.437 5055.794 Z  M 4393.518 4887.727 L 4365.837 5041.954 L 3869.543 5041.954 L 3995.099 4330.138 L 4491.393 4330.138 L 4463.711 4484.364 L 4145.371 4484.364 L 4122.633 4617.83 L 4385.609 4617.83 L 4357.928 4772.057 L 4094.951 4772.057 L 4075.178 4887.727 L 4393.518 4887.727 L 4393.518 4887.727 Z " fill="rgb(62,62,62)"/></g></svg>